<svg width="236" height="40" viewBox="0 0 236 40" fill="none" xmlns="http://www.w3.org/2000/svg">
<g filter="url(#filter0_d_1_2)">
<path d="M20.5909 0.0909081H24.8182V25.0455C24.8182 27.2727 24.4091 29.1648 23.5909 30.7216C22.7727 32.2784 21.6193 33.4602 20.1307 34.267C18.642 35.0739 16.8864 35.4773 14.8636 35.4773C12.9545 35.4773 11.2557 35.1307 9.76705 34.4375C8.27841 33.733 7.10795 32.733 6.25568 31.4375C5.40341 30.142 4.97727 28.6023 4.97727 26.8182H9.13636C9.13636 27.8068 9.38068 28.6705 9.86932 29.4091C10.3693 30.1364 11.0511 30.7045 11.9148 31.1136C12.7784 31.5227 13.7614 31.7273 14.8636 31.7273C16.0795 31.7273 17.1136 31.4716 17.9659 30.9602C18.8182 30.4489 19.4659 29.6989 19.9091 28.7102C20.3636 27.7102 20.5909 26.4886 20.5909 25.0455V0.0909081ZM43.3807 35.5455C41.017 35.5455 38.9432 34.983 37.1591 33.858C35.3864 32.733 34 31.1591 33 29.1364C32.0114 27.1136 31.517 24.75 31.517 22.0455C31.517 19.3182 32.0114 16.9375 33 14.9034C34 12.8693 35.3864 11.2898 37.1591 10.1648C38.9432 9.03977 41.017 8.47727 43.3807 8.47727C45.7443 8.47727 47.8125 9.03977 49.5852 10.1648C51.3693 11.2898 52.7557 12.8693 53.7443 14.9034C54.7443 16.9375 55.2443 19.3182 55.2443 22.0455C55.2443 24.75 54.7443 27.1136 53.7443 29.1364C52.7557 31.1591 51.3693 32.733 49.5852 33.858C47.8125 34.983 45.7443 35.5455 43.3807 35.5455ZM43.3807 31.9318C45.1761 31.9318 46.6534 31.4716 47.8125 30.5511C48.9716 29.6307 49.8295 28.4205 50.3864 26.9205C50.9432 25.4205 51.2216 23.7955 51.2216 22.0455C51.2216 20.2955 50.9432 18.6648 50.3864 17.1534C49.8295 15.642 48.9716 14.4205 47.8125 13.4886C46.6534 12.5568 45.1761 12.0909 43.3807 12.0909C41.5852 12.0909 40.108 12.5568 38.9489 13.4886C37.7898 14.4205 36.9318 15.642 36.375 17.1534C35.8182 18.6648 35.5398 20.2955 35.5398 22.0455C35.5398 23.7955 35.8182 25.4205 36.375 26.9205C36.9318 28.4205 37.7898 29.6307 38.9489 30.5511C40.108 31.4716 41.5852 31.9318 43.3807 31.9318ZM65.4077 19.25V35H61.3849V0.0909081H65.4077V12.9091H65.7486C66.3622 11.5568 67.2827 10.483 68.5099 9.6875C69.7486 8.88068 71.3963 8.47727 73.4531 8.47727C75.2372 8.47727 76.7997 8.83523 78.1406 9.55114C79.4815 10.2557 80.5213 11.3409 81.2599 12.8068C82.0099 14.2614 82.3849 16.1136 82.3849 18.3636V35H78.3622V18.6364C78.3622 16.5568 77.8224 14.9489 76.7429 13.8125C75.6747 12.6648 74.1918 12.0909 72.294 12.0909C70.9759 12.0909 69.794 12.3693 68.7486 12.9261C67.7145 13.483 66.8963 14.2955 66.294 15.3636C65.7031 16.4318 65.4077 17.7273 65.4077 19.25ZM93.767 19.25V35H89.7443V8.81818H93.6307V12.9091H93.9716C94.5852 11.5795 95.517 10.5114 96.767 9.70455C98.017 8.88636 99.6307 8.47727 101.608 8.47727C103.381 8.47727 104.932 8.84091 106.261 9.56818C107.591 10.2841 108.625 11.375 109.364 12.8409C110.102 14.2955 110.472 16.1364 110.472 18.3636V35H106.449V18.6364C106.449 16.5795 105.915 14.9773 104.847 13.8295C103.778 12.6705 102.313 12.0909 100.449 12.0909C99.1648 12.0909 98.017 12.3693 97.0057 12.9261C96.0057 13.483 95.2159 14.2955 94.6364 15.3636C94.0568 16.4318 93.767 17.7273 93.767 19.25ZM142.641 35H131.868V0.0909081H143.118C146.504 0.0909081 149.402 0.789772 151.811 2.1875C154.22 3.57386 156.067 5.56818 157.351 8.17045C158.635 10.7614 159.277 13.8636 159.277 17.4773C159.277 21.1136 158.629 24.2443 157.334 26.8693C156.038 29.483 154.152 31.4943 151.675 32.9034C149.197 34.3011 146.186 35 142.641 35ZM136.095 31.25H142.368C145.254 31.25 147.646 30.6932 149.544 29.5795C151.442 28.4659 152.857 26.8807 153.788 24.8239C154.72 22.767 155.186 20.3182 155.186 17.4773C155.186 14.6591 154.726 12.233 153.805 10.1989C152.885 8.15341 151.51 6.58523 149.68 5.49432C147.851 4.39204 145.572 3.84091 142.845 3.84091H136.095V31.25ZM176.459 35.5455C174.095 35.5455 172.021 34.983 170.237 33.858C168.464 32.733 167.078 31.1591 166.078 29.1364C165.089 27.1136 164.595 24.75 164.595 22.0455C164.595 19.3182 165.089 16.9375 166.078 14.9034C167.078 12.8693 168.464 11.2898 170.237 10.1648C172.021 9.03977 174.095 8.47727 176.459 8.47727C178.822 8.47727 180.891 9.03977 182.663 10.1648C184.447 11.2898 185.834 12.8693 186.822 14.9034C187.822 16.9375 188.322 19.3182 188.322 22.0455C188.322 24.75 187.822 27.1136 186.822 29.1364C185.834 31.1591 184.447 32.733 182.663 33.858C180.891 34.983 178.822 35.5455 176.459 35.5455ZM176.459 31.9318C178.254 31.9318 179.732 31.4716 180.891 30.5511C182.05 29.6307 182.908 28.4205 183.464 26.9205C184.021 25.4205 184.3 23.7955 184.3 22.0455C184.3 20.2955 184.021 18.6648 183.464 17.1534C182.908 15.642 182.05 14.4205 180.891 13.4886C179.732 12.5568 178.254 12.0909 176.459 12.0909C174.663 12.0909 173.186 12.5568 172.027 13.4886C170.868 14.4205 170.01 15.642 169.453 17.1534C168.896 18.6648 168.618 20.2955 168.618 22.0455C168.618 23.7955 168.896 25.4205 169.453 26.9205C170.01 28.4205 170.868 29.6307 172.027 30.5511C173.186 31.4716 174.663 31.9318 176.459 31.9318ZM205.44 35.5455C202.918 35.5455 200.741 34.9886 198.912 33.875C197.094 32.75 195.69 31.1818 194.702 29.1705C193.724 27.1477 193.236 24.7955 193.236 22.1136C193.236 19.4318 193.724 17.0682 194.702 15.0227C195.69 12.9659 197.065 11.3636 198.827 10.2159C200.599 9.05682 202.668 8.47727 205.031 8.47727C206.395 8.47727 207.741 8.70455 209.071 9.15909C210.401 9.61364 211.611 10.3523 212.702 11.375C213.793 12.3864 214.662 13.7273 215.31 15.3977C215.957 17.0682 216.281 19.125 216.281 21.5682V23.2727H196.099V19.7955H212.19C212.19 18.3182 211.895 17 211.304 15.8409C210.724 14.6818 209.895 13.767 208.815 13.0966C207.747 12.4261 206.486 12.0909 205.031 12.0909C203.429 12.0909 202.043 12.4886 200.872 13.2841C199.713 14.0682 198.821 15.0909 198.196 16.3523C197.571 17.6136 197.259 18.9659 197.259 20.4091V22.7273C197.259 24.7045 197.599 26.3807 198.281 27.7557C198.974 29.1193 199.935 30.1591 201.162 30.875C202.389 31.5795 203.815 31.9318 205.44 31.9318C206.497 31.9318 207.452 31.7841 208.304 31.4886C209.168 31.1818 209.912 30.7273 210.537 30.125C211.162 29.5114 211.645 28.75 211.986 27.8409L215.872 28.9318C215.463 30.25 214.776 31.4091 213.81 32.4091C212.844 33.3977 211.651 34.1705 210.23 34.7273C208.81 35.2727 207.213 35.5455 205.44 35.5455Z" fill="#723BAA"/>
<path d="M20.5909 0.0909081H24.8182V25.0455C24.8182 27.2727 24.4091 29.1648 23.5909 30.7216C22.7727 32.2784 21.6193 33.4602 20.1307 34.267C18.642 35.0739 16.8864 35.4773 14.8636 35.4773C12.9545 35.4773 11.2557 35.1307 9.76705 34.4375C8.27841 33.733 7.10795 32.733 6.25568 31.4375C5.40341 30.142 4.97727 28.6023 4.97727 26.8182H9.13636C9.13636 27.8068 9.38068 28.6705 9.86932 29.4091C10.3693 30.1364 11.0511 30.7045 11.9148 31.1136C12.7784 31.5227 13.7614 31.7273 14.8636 31.7273C16.0795 31.7273 17.1136 31.4716 17.9659 30.9602C18.8182 30.4489 19.4659 29.6989 19.9091 28.7102C20.3636 27.7102 20.5909 26.4886 20.5909 25.0455V0.0909081ZM43.3807 35.5455C41.017 35.5455 38.9432 34.983 37.1591 33.858C35.3864 32.733 34 31.1591 33 29.1364C32.0114 27.1136 31.517 24.75 31.517 22.0455C31.517 19.3182 32.0114 16.9375 33 14.9034C34 12.8693 35.3864 11.2898 37.1591 10.1648C38.9432 9.03977 41.017 8.47727 43.3807 8.47727C45.7443 8.47727 47.8125 9.03977 49.5852 10.1648C51.3693 11.2898 52.7557 12.8693 53.7443 14.9034C54.7443 16.9375 55.2443 19.3182 55.2443 22.0455C55.2443 24.75 54.7443 27.1136 53.7443 29.1364C52.7557 31.1591 51.3693 32.733 49.5852 33.858C47.8125 34.983 45.7443 35.5455 43.3807 35.5455ZM43.3807 31.9318C45.1761 31.9318 46.6534 31.4716 47.8125 30.5511C48.9716 29.6307 49.8295 28.4205 50.3864 26.9205C50.9432 25.4205 51.2216 23.7955 51.2216 22.0455C51.2216 20.2955 50.9432 18.6648 50.3864 17.1534C49.8295 15.642 48.9716 14.4205 47.8125 13.4886C46.6534 12.5568 45.1761 12.0909 43.3807 12.0909C41.5852 12.0909 40.108 12.5568 38.9489 13.4886C37.7898 14.4205 36.9318 15.642 36.375 17.1534C35.8182 18.6648 35.5398 20.2955 35.5398 22.0455C35.5398 23.7955 35.8182 25.4205 36.375 26.9205C36.9318 28.4205 37.7898 29.6307 38.9489 30.5511C40.108 31.4716 41.5852 31.9318 43.3807 31.9318ZM65.4077 19.25V35H61.3849V0.0909081H65.4077V12.9091H65.7486C66.3622 11.5568 67.2827 10.483 68.5099 9.6875C69.7486 8.88068 71.3963 8.47727 73.4531 8.47727C75.2372 8.47727 76.7997 8.83523 78.1406 9.55114C79.4815 10.2557 80.5213 11.3409 81.2599 12.8068C82.0099 14.2614 82.3849 16.1136 82.3849 18.3636V35H78.3622V18.6364C78.3622 16.5568 77.8224 14.9489 76.7429 13.8125C75.6747 12.6648 74.1918 12.0909 72.294 12.0909C70.9759 12.0909 69.794 12.3693 68.7486 12.9261C67.7145 13.483 66.8963 14.2955 66.294 15.3636C65.7031 16.4318 65.4077 17.7273 65.4077 19.25ZM93.767 19.25V35H89.7443V8.81818H93.6307V12.9091H93.9716C94.5852 11.5795 95.517 10.5114 96.767 9.70455C98.017 8.88636 99.6307 8.47727 101.608 8.47727C103.381 8.47727 104.932 8.84091 106.261 9.56818C107.591 10.2841 108.625 11.375 109.364 12.8409C110.102 14.2955 110.472 16.1364 110.472 18.3636V35H106.449V18.6364C106.449 16.5795 105.915 14.9773 104.847 13.8295C103.778 12.6705 102.313 12.0909 100.449 12.0909C99.1648 12.0909 98.017 12.3693 97.0057 12.9261C96.0057 13.483 95.2159 14.2955 94.6364 15.3636C94.0568 16.4318 93.767 17.7273 93.767 19.25ZM142.641 35H131.868V0.0909081H143.118C146.504 0.0909081 149.402 0.789772 151.811 2.1875C154.22 3.57386 156.067 5.56818 157.351 8.17045C158.635 10.7614 159.277 13.8636 159.277 17.4773C159.277 21.1136 158.629 24.2443 157.334 26.8693C156.038 29.483 154.152 31.4943 151.675 32.9034C149.197 34.3011 146.186 35 142.641 35ZM136.095 31.25H142.368C145.254 31.25 147.646 30.6932 149.544 29.5795C151.442 28.4659 152.857 26.8807 153.788 24.8239C154.72 22.767 155.186 20.3182 155.186 17.4773C155.186 14.6591 154.726 12.233 153.805 10.1989C152.885 8.15341 151.51 6.58523 149.68 5.49432C147.851 4.39204 145.572 3.84091 142.845 3.84091H136.095V31.25ZM176.459 35.5455C174.095 35.5455 172.021 34.983 170.237 33.858C168.464 32.733 167.078 31.1591 166.078 29.1364C165.089 27.1136 164.595 24.75 164.595 22.0455C164.595 19.3182 165.089 16.9375 166.078 14.9034C167.078 12.8693 168.464 11.2898 170.237 10.1648C172.021 9.03977 174.095 8.47727 176.459 8.47727C178.822 8.47727 180.891 9.03977 182.663 10.1648C184.447 11.2898 185.834 12.8693 186.822 14.9034C187.822 16.9375 188.322 19.3182 188.322 22.0455C188.322 24.75 187.822 27.1136 186.822 29.1364C185.834 31.1591 184.447 32.733 182.663 33.858C180.891 34.983 178.822 35.5455 176.459 35.5455ZM176.459 31.9318C178.254 31.9318 179.732 31.4716 180.891 30.5511C182.05 29.6307 182.908 28.4205 183.464 26.9205C184.021 25.4205 184.3 23.7955 184.3 22.0455C184.3 20.2955 184.021 18.6648 183.464 17.1534C182.908 15.642 182.05 14.4205 180.891 13.4886C179.732 12.5568 178.254 12.0909 176.459 12.0909C174.663 12.0909 173.186 12.5568 172.027 13.4886C170.868 14.4205 170.01 15.642 169.453 17.1534C168.896 18.6648 168.618 20.2955 168.618 22.0455C168.618 23.7955 168.896 25.4205 169.453 26.9205C170.01 28.4205 170.868 29.6307 172.027 30.5511C173.186 31.4716 174.663 31.9318 176.459 31.9318ZM205.44 35.5455C202.918 35.5455 200.741 34.9886 198.912 33.875C197.094 32.75 195.69 31.1818 194.702 29.1705C193.724 27.1477 193.236 24.7955 193.236 22.1136C193.236 19.4318 193.724 17.0682 194.702 15.0227C195.69 12.9659 197.065 11.3636 198.827 10.2159C200.599 9.05682 202.668 8.47727 205.031 8.47727C206.395 8.47727 207.741 8.70455 209.071 9.15909C210.401 9.61364 211.611 10.3523 212.702 11.375C213.793 12.3864 214.662 13.7273 215.31 15.3977C215.957 17.0682 216.281 19.125 216.281 21.5682V23.2727H196.099V19.7955H212.19C212.19 18.3182 211.895 17 211.304 15.8409C210.724 14.6818 209.895 13.767 208.815 13.0966C207.747 12.4261 206.486 12.0909 205.031 12.0909C203.429 12.0909 202.043 12.4886 200.872 13.2841C199.713 14.0682 198.821 15.0909 198.196 16.3523C197.571 17.6136 197.259 18.9659 197.259 20.4091V22.7273C197.259 24.7045 197.599 26.3807 198.281 27.7557C198.974 29.1193 199.935 30.1591 201.162 30.875C202.389 31.5795 203.815 31.9318 205.44 31.9318C206.497 31.9318 207.452 31.7841 208.304 31.4886C209.168 31.1818 209.912 30.7273 210.537 30.125C211.162 29.5114 211.645 28.75 211.986 27.8409L215.872 28.9318C215.463 30.25 214.776 31.4091 213.81 32.4091C212.844 33.3977 211.651 34.1705 210.23 34.7273C208.81 35.2727 207.213 35.5455 205.44 35.5455Z" fill="black" fill-opacity="0.2"/>
</g>
<defs>
<filter id="filter0_d_1_2" x="0.97728" y="0.0909119" width="219.304" height="43.4545" filterUnits="userSpaceOnUse" color-interpolation-filters="sRGB">
<feFlood flood-opacity="0" result="BackgroundImageFix"/>
<feColorMatrix in="SourceAlpha" type="matrix" values="0 0 0 0 0 0 0 0 0 0 0 0 0 0 0 0 0 0 127 0" result="hardAlpha"/>
<feOffset dy="4"/>
<feGaussianBlur stdDeviation="2"/>
<feComposite in2="hardAlpha" operator="out"/>
<feColorMatrix type="matrix" values="0 0 0 0 0 0 0 0 0 0 0 0 0 0 0 0 0 0 0.25 0"/>
<feBlend mode="normal" in2="BackgroundImageFix" result="effect1_dropShadow_1_2"/>
<feBlend mode="normal" in="SourceGraphic" in2="effect1_dropShadow_1_2" result="shape"/>
</filter>
</defs>
</svg>